<?xml version="1.0" encoding="iso-8859-1"?>
<!-- Generator: Adobe Illustrator 19.0.0, SVG Export Plug-In . SVG Version: 6.00 Build 0)  -->
<svg xmlns="http://www.w3.org/2000/svg" xmlns:xlink="http://www.w3.org/1999/xlink" version="1.1" id="Capa_1" x="0px" y="0px" viewBox="0 0 389.44 389.44" style="enable-background:new 0 0 389.44 389.44;" xml:space="preserve" width="512px" height="512px">
<g>
	<g>
		<circle cx="245.56" cy="252.24" r="13.44" fill="#0072c9"/>
	</g>
</g>
<g>
	<g>
		<path d="M383.36,207.52c-3.917-3.941-9.244-6.158-14.8-6.16h-5.8v-73.12c-0.044-25.506-20.734-46.16-46.24-46.16h-24.64v-44    c-0.044-19.665-15.975-35.596-35.64-35.64H121.72c-19.665,0.044-35.596,15.975-35.64,35.64v44H67.12    c-24.152,0.078-44.184,18.716-46,42.8c-2.727,1.77-5.261,3.821-7.56,6.12C4.884,139.63,0.004,151.362,0,163.6v177.28    c0.066,25.444,20.676,46.054,46.12,46.12h249.44c24.167-0.079,44.204-18.74,46-42.84c5.746-3.751,10.594-8.722,14.2-14.56    c4.472-7.208,6.854-15.517,6.88-24v-2.4h5.92c5.523-0.013,10.816-2.214,14.72-6.12c3.931-3.907,6.147-9.217,6.16-14.76v-60    C389.459,216.775,387.271,211.45,383.36,207.52z M291.88,98.24h24.64c7.948,0.015,15.563,3.196,21.16,8.84    c5.629,5.603,8.796,13.217,8.8,21.16v73.12h-4.84V163.6c-0.066-25.428-20.652-46.032-46.08-46.12h-3.68V98.24z M102.24,37.92    c0.044-10.74,8.74-19.436,19.48-19.48h134.52c10.74,0.044,19.436,8.74,19.48,19.48v79.56h-12.64v-58c0-4.418-3.582-8-8-8    c-6.132-0.022-11.098-4.988-11.12-11.12c0-4.418-3.582-8-8-8h-93.8c-4.418,0-8,3.582-8,8c-0.087,6.185-5.172,11.128-11.357,11.041    c-0.014,0-0.029,0-0.043-0.001c-4.418,0-8,3.582-8,8v58h-12.52V37.92z M246.76,66.32v51.16h-116V66.32    c8.56-2.695,15.265-9.4,17.96-17.96h80C231.431,56.939,238.169,63.648,246.76,66.32z M45.96,107.08    c5.603-5.629,13.217-8.796,21.16-8.8h18.96v19.24h-40h-3.76c-1.16,0-2.32,0.24-3.44,0.4    C40.427,113.837,42.843,110.138,45.96,107.08z M325.56,340.88c-0.066,16.519-13.441,29.894-29.96,29.96H46.12    c-16.519-0.066-29.894-13.441-29.96-29.96V163.6c0.004-7.943,3.171-15.557,8.8-21.16c4.727-4.892,11.032-7.952,17.8-8.64    c0.84,0,2.56,0,3.44,0h249.36c16.519,0.066,29.894,13.441,29.96,29.96v37.76h-83.36c-28.538,0.469-51.293,23.983-50.825,52.521    c0.005,0.32,0.013,0.639,0.025,0.959c0,26.2,19.64,48.24,50.8,48.24h83.36l0.04,36.24V340.88z M346.52,305.52    c0.014,5.521-1.509,10.937-4.4,15.64l-0.4,0.64v-18.72h4.84L346.52,305.52z M373.36,282.2c0.008,1.255-0.481,2.463-1.36,3.36    c-0.897,0.879-2.104,1.367-3.36,1.36H242.16c-13.56,0-34.68-6.08-34.68-36c0-23.68,21.44-33.36,34.68-33.36H368.6    c2.62,0.022,4.738,2.14,4.76,4.76L373.36,282.2z" fill="#0072c9"/>
	</g>
</g>
<g>
</g>
<g>
</g>
<g>
</g>
<g>
</g>
<g>
</g>
<g>
</g>
<g>
</g>
<g>
</g>
<g>
</g>
<g>
</g>
<g>
</g>
<g>
</g>
<g>
</g>
<g>
</g>
<g>
</g>
</svg>
